<svg width="16" height="17" viewBox="0 0 16 17" fill="none" xmlns="http://www.w3.org/2000/svg">
<path d="M3.25 10.5H2.25C2.11193 10.5 2 10.6119 2 10.75V15.25C2 15.3881 2.11193 15.5 2.25 15.5H3.25C3.38807 15.5 3.5 15.3881 3.5 15.25V10.75C3.5 10.6119 3.38807 10.5 3.25 10.5Z" fill="#1C1B1F" stroke="#1C1B1F" stroke-width="0.9375" stroke-linecap="round" stroke-linejoin="round"/>
<path d="M10.25 7.5H9.25C9.11193 7.5 9 7.61193 9 7.75V15.25C9 15.3881 9.11193 15.5 9.25 15.5H10.25C10.3881 15.5 10.5 15.3881 10.5 15.25V7.75C10.5 7.61193 10.3881 7.5 10.25 7.5Z" fill="#1C1B1F" stroke="#1C1B1F" stroke-width="0.9375" stroke-linecap="round" stroke-linejoin="round"/>
<path d="M13.75 4H12.75C12.6119 4 12.5 4.11193 12.5 4.25V15.25C12.5 15.3881 12.6119 15.5 12.75 15.5H13.75C13.8881 15.5 14 15.3881 14 15.25V4.25C14 4.11193 13.8881 4 13.75 4Z" fill="#1C1B1F" stroke="#1C1B1F" stroke-width="0.9375" stroke-linecap="round" stroke-linejoin="round"/>
<path d="M6.75 1.5H5.75C5.61193 1.5 5.5 1.61193 5.5 1.75V15.25C5.5 15.3881 5.61193 15.5 5.75 15.5H6.75C6.88807 15.5 7 15.3881 7 15.25V1.75C7 1.61193 6.88807 1.5 6.75 1.5Z" fill="#1C1B1F" stroke="#1C1B1F" stroke-width="0.9375" stroke-linecap="round" stroke-linejoin="round"/>
</svg>
