<svg width="22" height="22" viewBox="0 0 22 22" fill="none" xmlns="http://www.w3.org/2000/svg">
<g clip-path="url(#clip0_320_105)">
<path d="M11.0004 0.785645C12.7884 0.785645 14.5031 1.4959 15.7673 2.76016C17.0316 4.02443 17.7418 5.73913 17.7418 7.52707C17.7418 15.0228 20.4761 16.4999 21.2147 16.4999H0.786133C1.54042 16.4999 4.25899 15.0071 4.25899 7.52707C4.25899 5.73913 4.96925 4.02443 6.23351 2.76016C7.49777 1.4959 9.21248 0.785645 11.0004 0.785645V0.785645Z" stroke="white" stroke-opacity="0.9" stroke-width="1.42857" stroke-linecap="round" stroke-linejoin="round"/>
<path d="M8.64355 19.3757C8.77939 19.8975 9.0845 20.3594 9.51107 20.6892C9.93763 21.0189 10.4615 21.1978 11.0007 21.1978C11.5398 21.1978 12.0638 21.0189 12.4903 20.6892C12.9169 20.3594 13.222 19.8975 13.3578 19.3757" stroke="white" stroke-opacity="0.9" stroke-width="1.42857" stroke-linecap="round" stroke-linejoin="round"/>
</g>
<defs>
<clipPath id="clip0_320_105">
<rect width="22" height="22" fill="white"/>
</clipPath>
</defs>
</svg>
