<svg width="23" height="23" viewBox="0 0 23 23" fill="none" xmlns="http://www.w3.org/2000/svg">
<rect width="22.5" height="22.5" fill="#F9F9F9"/>
<path d="M5.32352 9.31282C7.54252 9.31282 9.34138 7.51396 9.34138 5.29496C9.34138 3.07595 7.54252 1.2771 5.32352 1.2771C3.10452 1.2771 1.30566 3.07595 1.30566 5.29496C1.30566 7.51396 3.10452 9.31282 5.32352 9.31282Z" fill="#88888C" stroke="#88888C" stroke-width="1.5" stroke-linecap="round" stroke-linejoin="round"/>
<path d="M5.29814 21.2159C7.51714 21.2159 9.316 19.4171 9.316 17.1981C9.316 14.979 7.51714 13.1802 5.29814 13.1802C3.07912 13.1802 1.28027 14.979 1.28027 17.1981C1.28027 19.4171 3.07912 21.2159 5.29814 21.2159Z" fill="#88888C" stroke="#88888C" stroke-width="1.5" stroke-linecap="round" stroke-linejoin="round"/>
<path d="M17.2269 9.31282C19.4459 9.31282 21.2448 7.51396 21.2448 5.29496C21.2448 3.07595 19.4459 1.2771 17.2269 1.2771C15.0078 1.2771 13.209 3.07595 13.209 5.29496C13.209 7.51396 15.0078 9.31282 17.2269 9.31282Z" fill="#88888C" stroke="#88888C" stroke-width="1.5" stroke-linecap="round" stroke-linejoin="round"/>
<path d="M17.2014 21.2159C19.4204 21.2159 21.2193 19.4171 21.2193 17.1981C21.2193 14.979 19.4204 13.1802 17.2014 13.1802C14.9825 13.1802 13.1836 14.979 13.1836 17.1981C13.1836 19.4171 14.9825 21.2159 17.2014 21.2159Z" fill="#88888C" stroke="#88888C" stroke-width="1.5" stroke-linecap="round" stroke-linejoin="round"/>
</svg>
