<svg width="26" height="26" viewBox="0 0 26 26" fill="none" xmlns="http://www.w3.org/2000/svg">
<path d="M21.125 11.2354V21.125C21.125 21.7715 20.8682 22.3915 20.4111 22.8486C19.954 23.3057 19.334 23.5625 18.6875 23.5625H7.3125C6.66603 23.5625 6.04605 23.3057 5.58893 22.8486C5.13181 22.3915 4.875 21.7715 4.875 21.125V4.875C4.875 4.22853 5.13181 3.60855 5.58893 3.15143C6.04605 2.69431 6.66603 2.4375 7.3125 2.4375H12.3271C12.758 2.43757 13.1711 2.60871 13.4758 2.91332L20.6492 10.0867C20.9538 10.3914 21.1249 10.8045 21.125 11.2354Z" stroke="#88888C" stroke-width="1.4375" stroke-linejoin="round"/>
<path d="M13 2.84375V8.9375C13 9.36848 13.1712 9.7818 13.476 10.0865C13.7807 10.3913 14.194 10.5625 14.625 10.5625H20.7188M8.9375 14.625H17.0625M8.9375 18.6875H17.0625" stroke="#88888C" stroke-width="1.4375" stroke-linecap="round" stroke-linejoin="round"/>
</svg>
