<svg width="29" height="29" viewBox="0 0 29 29" fill="none" xmlns="http://www.w3.org/2000/svg">
<path d="M21.2316 21.75H24.65C24.8423 21.75 25.0267 21.6736 25.1627 21.5377C25.2986 21.4017 25.375 21.2173 25.375 21.025V13.2917C25.375 12.0098 24.8658 10.7804 23.9593 9.87398C23.0529 8.96756 21.8235 8.45833 20.5417 8.45833H8.45833C7.17645 8.45833 5.94708 8.96756 5.04065 9.87398C4.13422 10.7804 3.625 12.0098 3.625 13.2917V21.025C3.625 21.2173 3.70138 21.4017 3.83735 21.5377C3.97331 21.6736 4.15772 21.75 4.35 21.75H7.76838M9.66667 8.45833V4.35C9.66667 4.15772 9.74305 3.97331 9.87901 3.83735C10.015 3.70138 10.1994 3.625 10.3917 3.625H18.6083C18.8006 3.625 18.985 3.70138 19.121 3.83735C19.257 3.97331 19.3333 4.15772 19.3333 4.35V8.45833" stroke="#1C1B1F" stroke-width="1.7"/>
<path d="M7.36864 24.5474L7.76739 21.7501L8.36914 17.539C8.39386 17.3663 8.48005 17.2083 8.6119 17.094C8.74374 16.9797 8.91239 16.9167 9.08689 16.9167H19.9136C20.0881 16.9167 20.2567 16.9797 20.3885 17.094C20.5204 17.2083 20.6066 17.3663 20.6313 17.539L21.2306 21.7501L21.6306 24.5474C21.6453 24.6502 21.6378 24.755 21.6084 24.8547C21.5791 24.9544 21.5287 25.0466 21.4607 25.1251C21.3926 25.2036 21.3084 25.2665 21.2139 25.3096C21.1194 25.3528 21.0167 25.3751 20.9128 25.3751H8.08639C7.9825 25.3751 7.87982 25.3528 7.7853 25.3096C7.69079 25.2665 7.60665 25.2036 7.53859 25.1251C7.47052 25.0466 7.42012 24.9544 7.3908 24.8547C7.36148 24.755 7.35392 24.6502 7.36864 24.5474V24.5474Z" stroke="#1C1B1F" stroke-width="1.7"/>
<path d="M20.542 12.0958L20.5545 12.082" stroke="#1C1B1F" stroke-width="1.7" stroke-linecap="round" stroke-linejoin="round"/>
</svg>
