<svg width="25" height="25" viewBox="0 0 25 25" fill="none" xmlns="http://www.w3.org/2000/svg">
<path d="M10.5795 3.0625C9.09278 3.0625 7.63945 3.50336 6.40328 4.32934C5.16712 5.15532 4.20365 6.32932 3.6347 7.70287C3.06576 9.07642 2.9169 10.5878 3.20694 12.046C3.49699 13.5042 4.21291 14.8436 5.26418 15.8948C6.31545 16.9461 7.65486 17.662 9.11301 17.9521C10.5712 18.2421 12.0826 18.0932 13.4561 17.5243C14.8297 16.9554 16.0037 15.9919 16.8297 14.7557C17.6556 13.5196 18.0965 12.0662 18.0965 10.5795C18.0964 8.58591 17.3044 6.674 15.8947 5.26432C14.485 3.85464 12.5731 3.06263 10.5795 3.0625V3.0625Z" stroke="white" stroke-opacity="0.9" stroke-width="1.7" stroke-miterlimit="10"/>
<path d="M16.1875 16.1877L21.4373 21.4375" stroke="white" stroke-opacity="0.9" stroke-width="1.7" stroke-miterlimit="10" stroke-linecap="round"/>
</svg>
